# xmcd
#
# Track frame offsets: 
#        150
#        20669
#        39361
#        63919
#        81011
#        99689
#        115931
#        134627
#        156185
#        172012
#        193913
#
# Disc length: 2829 seconds
#
# Revision: 0
# Processed by: cddbd v1.5.2PL0 Copyright (c) Steve Scherf et al.
# Submitted via: ExactAudioCopy v1.0b2
#
DISCID=970b0b0b
DTITLE=Chris Rea - Blue Guitars: A Collection Of Songs CD2
DYEAR=2007
DGENRE=Blues
TTITLE0=Work Gang
TTITLE1=Wild Pony
TTITLE2=One Night With You
TTITLE3=Boen Bad
TTITLE4=The American Way
TTITLE5=Catwalk Woman
TTITLE6=If That's What You Want
TTITLE7=Gospel Trail
TTITLE8=Till I Find My True Love's Name
TTITLE9=Sometimes
TTITLE10=Who Killed Love
EXTD=
EXTT0=
EXTT1=
EXTT2=
EXTT3=
EXTT4=
EXTT5=
EXTT6=
EXTT7=
EXTT8=
EXTT9=
EXTT10=
PLAYORDER=
